<?xml version="1.0" encoding="UTF-8"?>
<svg width="97px" height="24px" viewBox="0 0 97 24" version="1.1" xmlns="http://www.w3.org/2000/svg" xmlns:xlink="http://www.w3.org/1999/xlink">
    <title>zapper</title>
    <defs>
        <path d="M4.345,7.465 C4.345,4.529 5.889,3.23 7.645,3.23 C7.645,3.23 11.058,3.383 11.058,7.36 C11.058,11.337 8.7,12.071 7.225,12.071 C5.925,12.071 4.347,10.393 4.347,7.456 M0,3.221 C0,6.875 0.043,22.171 0.043,22.171 C0.043,22.171 0.196,22.184 0.437,22.184 L0.477,22.184 C1.607,22.184 4.533,21.876 4.533,18.854 L4.533,13.332 C5.51452927,14.7767616 7.13101615,15.6612896 8.877,15.709 C12.151,15.709 15.564,13.474 15.564,7.266 C15.564,-0.085 9.346,0.006 9.346,0.006 C9.346,0.006 5.392,0.084 4.546,2.626 L4.546,0.019 C4.546,0.019 4.364,0 4.075,0 C2.916,0 0.006,0.292 0.006,3.218" id="path-1"></path>
        <path d="M4.106,10.382 C4.106,10.382 3.806,8.722 6.74,8.436 C6.74,8.436 9.409,8.093 9.43,8.666 C9.43,8.666 9.791,12.466 6.336,12.598 L6.229,12.598 C4.152,12.598 4.106,10.387 4.106,10.387 M1.847,2.244 C1.69237875,3.00468629 1.63292283,3.78164418 1.67,4.557 C3.05711602,3.60530592 4.68256503,3.06014147 6.363,2.983 C9.706,2.913 9.383,5.756 9.383,5.756 C9.383,5.756 0,4.691 0,11.335 C0,11.335 0,15.663 5.115,15.663 C6.82081479,15.4699089 8.35463935,14.5343198 9.307,13.106 L9.307,15.269 C9.307,15.269 13.536,15.695 13.536,12.069 L13.536,4.369 C13.536,4.369 13.325,0 6.927,0 C6.927,0 2.767,0.035 1.844,2.238" id="path-3"></path>
        <path d="M11.2688049,0.597787019 L0.397804901,12.397787 C-0.0627936294,13.0315621 -0.128604319,13.8702536 0.227503026,14.5681142 C0.583610371,15.2659749 1.30133774,15.7048391 2.0848049,15.7037889 L12.4598049,15.7037889 C13.6115947,15.7037889 14.5453049,14.7700769 14.5453049,13.618287 C14.5453049,12.4664972 13.6115947,11.532787 12.4598049,11.532787 L7.0818049,11.532787 C7.0818049,11.532787 6.6878049,11.449787 7.0418049,11.090787 L14.1628049,3.59078702 L14.2378049,3.51078702 L14.3608049,3.36078702 C14.6469158,2.99947548 14.8036018,2.55265644 14.8058278,2.09178702 C14.809734,1.2510553 14.3076233,0.490466543 13.5329728,0.163722348 C12.7583222,-0.163021848 11.863174,0.00820929059 11.2638049,0.597787019" id="path-5"></path>
        <path d="M4.342,7.465 C4.342,4.529 5.887,3.23 7.642,3.23 C7.642,3.23 11.058,3.383 11.058,7.36 C11.058,11.337 8.697,12.071 7.225,12.071 C5.925,12.071 4.345,10.393 4.345,7.456 M0,3.221 C0,6.875 0.043,22.171 0.043,22.171 C0.043,22.171 0.193,22.184 0.437,22.184 L0.477,22.184 C1.604,22.184 4.532,21.876 4.532,18.854 L4.532,13.332 C5.51300668,14.7763241 7.12868492,15.6608168 8.874,15.709 C12.148,15.709 15.561,13.474 15.561,7.266 C15.561,-0.085 9.34,0.006 9.34,0.006 C9.34,0.006 5.389,0.084 4.54,2.626 L4.54,0.019 C4.54,0.019 4.361,0 4.071,0 C2.912,0 0.002,0.292 0.002,3.218" id="path-7"></path>
        <path d="M0,3.219 C0,6.873 0.019,15.281 0.019,15.281 C0.019,15.281 4.543,15.592 4.543,11.849 L4.543,8.206 C4.543,5.269 5.897,4.006 7.654,4.006 C8.22248794,4.06117449 8.7721834,4.23928811 9.265,4.528 L9.265,0.004 C8.719,0.031 5.33,0.282 4.546,2.619 L4.546,0.019 C4.546,0.019 4.364,0 4.075,0 C2.916,0 0.006,0.292 0.006,3.218" id="path-9"></path>
        <path d="M7.36234029,2.844 C10.3013403,2.844 10.1513403,6.233 10.1513403,6.233 L4.26234029,6.233 C4.26234029,6.233 4.41534029,2.844 7.35434029,2.844 M0.000340285345,7.724 C-0.03906312,11.9438045 3.34855862,15.397227 7.56834029,15.439 C7.79034029,15.439 8.00734029,15.428 8.22434029,15.407 C9.19522572,15.2814177 10.140194,15.003327 11.0243403,14.583 C11.6779212,14.2388314 12.27761,13.8008564 12.8043403,13.283 C13.3589214,12.6732685 13.7407257,11.9265752 13.9103403,11.12 L13.2673403,11.12 C13.2673403,11.12 12.0873403,12.335 8.43534029,12.335 C6.33745912,12.3206855 4.5686497,10.767439 4.28334029,8.689 L14.1953403,8.689 C14.2953403,7.554 14.4793403,2.803 10.9753403,0.838 C9.92523355,0.291042396 8.75934754,0.00368578503 7.57534029,0 C3.35382589,0.0412220436 -0.0351729717,3.49647874 0.00534028534,7.718" id="path-11"></path>
    </defs>
    <g id="Getting-started" stroke="none" stroke-width="1" fill="none" fill-rule="evenodd">
        <g id="Logged-in-with-wallet-funds" transform="translate(-422.000000, -849.000000)">
            <g id="Group_79" transform="translate(422.752195, 849.529719)">
                <path d="M9.8638049,0.00128050248 L2.2398049,0.00128050248 C1.49179016,-0.0248732943 0.78694487,0.351159634 0.392112327,0.987019166 C-0.0027202158,1.6228787 -0.0271954335,2.42138268 0.327952604,3.08023012 C0.683100642,3.73907756 1.36359257,4.15757293 2.1118049,4.1772805 C2.15442982,4.17994978 2.19717998,4.17994978 2.2398049,4.1772805 L6.1188049,4.1772805 L9.8638049,0.00128050248 Z" id="Path_125" fill="#74B7CF" fill-rule="nonzero"></path>
                <path d="M33.9688049,7.9622805 C33.9688049,5.0262805 35.5128049,3.7272805 37.2688049,3.7272805 C37.2688049,3.7272805 40.6818049,3.8802805 40.6818049,7.8572805 C40.6818049,11.8342805 38.3238049,12.5682805 36.8488049,12.5682805 C35.5488049,12.5682805 33.9708049,10.8902805 33.9708049,7.9532805 M29.6238049,3.7182805 C29.6238049,7.3722805 29.6668049,22.6682805 29.6668049,22.6682805 C29.6668049,22.6682805 29.8198049,22.6812805 30.0608049,22.6812805 L30.1008049,22.6812805 C31.2308049,22.6812805 34.1568049,22.3732805 34.1568049,19.3512805 L34.1568049,13.8292805 C35.1383342,15.2740421 36.7548211,16.1585701 38.5008049,16.2062805 C41.7748049,16.2062805 45.1878049,13.9712805 45.1878049,7.7632805 C45.1878049,0.412280502 38.9698049,0.503280502 38.9698049,0.503280502 C38.9698049,0.503280502 35.0158049,0.581280502 34.1698049,3.1232805 L34.1698049,0.516280502 C34.1698049,0.516280502 33.9878049,0.497280502 33.6988049,0.497280502 C32.5398049,0.497280502 29.6298049,0.789280502 29.6298049,3.7152805" id="Path_126" fill="#194D9B" fill-rule="nonzero"></path>
                <g id="Group_62-Clipped" transform="translate(29.623805, 0.497281)">
                    <mask id="mask-2" fill="white">
                        <use xlink:href="#path-1"></use>
                    </mask>
                    <g id="Path_127"></g>
                    <g id="Group_62" mask="url(#mask-2)">
                        <g transform="translate(-0.001000, -0.083000)" id="Group_61">
                            <g transform="translate(-0.000000, 0.000000)">
                                <rect id="Rectangle_48" fill="#194D9B" fill-rule="nonzero" x="0" y="0" width="15.558" height="22.266"></rect>
                            </g>
                        </g>
                    </g>
                </g>
                <g id="Group_65-Clipped" transform="translate(14.785805, 0.359281)">
                    <mask id="mask-4" fill="white">
                        <use xlink:href="#path-3"></use>
                    </mask>
                    <g id="Path_128"></g>
                    <g id="Group_65" mask="url(#mask-4)">
                        <g transform="translate(0.003000, -0.000000)" id="Group_64">
                            <g transform="translate(0.000000, 0.000000)">
                                <rect id="Rectangle_49" fill="#194D9B" fill-rule="nonzero" x="0" y="0" width="13.54" height="15.708"></rect>
                            </g>
                        </g>
                    </g>
                </g>
                <path d="M11.2688049,0.609280502 L0.397804901,12.4092805 C-0.0627936294,13.0430556 -0.128604319,13.8817471 0.227503026,14.5796077 C0.583610371,15.2774683 1.30133774,15.7163326 2.0848049,15.7152824 L12.4598049,15.7152824 C13.6115947,15.7152824 14.5453049,14.7815703 14.5453049,13.6297805 C14.5453049,12.4779907 13.6115947,11.5442805 12.4598049,11.5442805 L7.0818049,11.5442805 C7.0818049,11.5442805 6.6878049,11.4612805 7.0418049,11.1022805 L14.1628049,3.6022805 L14.2378049,3.5222805 L14.3608049,3.3722805 C14.6469158,3.01096896 14.8036018,2.56414993 14.8058278,2.1032805 C14.809734,1.26254878 14.3076233,0.501960026 13.5329728,0.175215831 C12.7583222,-0.151528364 11.863174,0.0197027741 11.2638049,0.609280502" id="Path_129" fill="#194D9B" fill-rule="nonzero"></path>
                <g id="Group_68-Clipped" transform="translate(0.000000, 0.011493)">
                    <mask id="mask-6" fill="white">
                        <use xlink:href="#path-5"></use>
                    </mask>
                    <g id="Path_130"></g>
                    <g id="Group_68" mask="url(#mask-6)">
                        <g transform="translate(0.004805, 0.003787)" id="Group_67">
                            <g transform="translate(-0.000000, -0.000000)">
                                <rect id="Rectangle_50" fill="#194D9B" fill-rule="nonzero" x="0" y="0" width="14.801" height="15.698"></rect>
                            </g>
                        </g>
                    </g>
                </g>
                <path d="M50.2448049,7.9622805 C50.2448049,5.0262805 51.7898049,3.7272805 53.5448049,3.7272805 C53.5448049,3.7272805 56.9608049,3.8802805 56.9608049,7.8572805 C56.9608049,11.8342805 54.5998049,12.5682805 53.1278049,12.5682805 C51.8278049,12.5682805 50.2478049,10.8902805 50.2478049,7.9532805 M45.9028049,3.7182805 C45.9028049,7.3722805 45.9458049,22.6682805 45.9458049,22.6682805 C45.9458049,22.6682805 46.0958049,22.6812805 46.3398049,22.6812805 L46.3798049,22.6812805 C47.5068049,22.6812805 50.4348049,22.3732805 50.4348049,19.3512805 L50.4348049,13.8292805 C51.4158116,15.2736046 53.0314898,16.1580973 54.7768049,16.2062805 C58.0508049,16.2062805 61.4638049,13.9712805 61.4638049,7.7632805 C61.4638049,0.412280502 55.2428049,0.503280502 55.2428049,0.503280502 C55.2428049,0.503280502 51.2918049,0.581280502 50.4428049,3.1232805 L50.4428049,0.516280502 C50.4428049,0.516280502 50.2638049,0.497280502 49.9738049,0.497280502 C48.8148049,0.497280502 45.9048049,0.789280502 45.9048049,3.7152805" id="Path_131" fill="#194D9B" fill-rule="nonzero"></path>
                <g id="Group_71-Clipped" transform="translate(45.902805, 0.497281)">
                    <mask id="mask-8" fill="white">
                        <use xlink:href="#path-7"></use>
                    </mask>
                    <g id="Path_132"></g>
                    <g id="Group_71" mask="url(#mask-8)">
                        <g transform="translate(-0.004000, -0.083000)" id="Group_70">
                            <g transform="translate(0.000000, 0.000000)">
                                <rect id="Rectangle_51" fill="#194D9B" fill-rule="nonzero" x="0" y="0" width="15.558" height="22.266"></rect>
                            </g>
                        </g>
                    </g>
                </g>
                <path d="M77.3188049,3.7172805 C77.3188049,7.3712805 77.3378049,15.7792805 77.3378049,15.7792805 C77.3378049,15.7792805 81.8618049,16.0902805 81.8618049,12.3472805 L81.8618049,8.7042805 C81.8618049,5.7672805 83.2158049,4.5042805 84.9728049,4.5042805 C85.5412928,4.55945499 86.0909883,4.73756861 86.5838049,5.0262805 L86.5838049,0.502280502 C86.0378049,0.529280502 82.6488049,0.780280502 81.8648049,3.1172805 L81.8648049,0.517280502 C81.8648049,0.517280502 81.6828049,0.498280502 81.3938049,0.498280502 C80.2348049,0.498280502 77.3248049,0.790280502 77.3248049,3.7162805" id="Path_133" fill="#194D9B" fill-rule="nonzero"></path>
                <g id="Group_74-Clipped" transform="translate(77.318805, 0.498281)">
                    <mask id="mask-10" fill="white">
                        <use xlink:href="#path-9"></use>
                    </mask>
                    <g id="Path_134"></g>
                    <g id="Group_74" mask="url(#mask-10)">
                        <g transform="translate(0.000000, 0.001000)" id="Group_73">
                            <rect id="Rectangle_52" fill="#194D9B" fill-rule="nonzero" x="0" y="0" width="9.256" height="15.59"></rect>
                        </g>
                    </g>
                </g>
                <path d="M69.3878049,3.5302805 C72.3268049,3.5302805 72.1768049,6.9192805 72.1768049,6.9192805 L66.2878049,6.9192805 C66.2878049,6.9192805 66.4408049,3.5302805 69.3798049,3.5302805 M62.0258049,8.4102805 C61.9864015,12.630085 65.3740232,16.0835075 69.5938049,16.1252805 C69.8158049,16.1252805 70.0328049,16.1142805 70.2498049,16.0932805 C71.2206903,15.9676982 72.1656586,15.6896075 73.0498049,15.2692805 C73.7033858,14.9251119 74.3030746,14.4871369 74.8298049,13.9692805 C75.384386,13.359549 75.7661904,12.6128557 75.9358049,11.8062805 L75.2928049,11.8062805 C75.2928049,11.8062805 74.1128049,13.0212805 70.4608049,13.0212805 C68.3629237,13.006966 66.5941143,11.4537195 66.3088049,9.3752805 L76.2208049,9.3752805 C76.3208049,8.2402805 76.5048049,3.4892805 73.0008049,1.5242805 C71.9506982,0.977322898 70.7848122,0.689966288 69.6008049,0.686280502 C65.3792905,0.727502546 61.9902916,4.18275925 62.0308049,8.4042805" id="Path_135" fill="#194D9B" fill-rule="nonzero"></path>
                <g id="Group_77-Clipped" transform="translate(62.026465, 0.686281)">
                    <mask id="mask-12" fill="white">
                        <use xlink:href="#path-11"></use>
                    </mask>
                    <g id="Path_136"></g>
                    <g id="Group_77" mask="url(#mask-12)">
                        <g transform="translate(0.008340, 0.006000)" id="Group_76">
                            <g transform="translate(-0.000000, -0.000000)">
                                <rect id="Rectangle_53" fill="#194D9B" fill-rule="nonzero" x="0" y="0" width="14.479" height="15.431"></rect>
                            </g>
                        </g>
                    </g>
                </g>
                <polygon id="Path_137" fill="#89BFD3" fill-rule="nonzero" points="89.2688049 1.2062805 87.8418049 1.2062805 87.8418049 0.697280502 91.2708049 0.697280502 91.2708049 1.2062805 89.8438049 1.2062805 89.8438049 4.9212805 89.2708049 4.9212805"></polygon>
                <polygon id="Path_138" fill="#89BFD3" fill-rule="nonzero" points="92.3358049 4.9212805 91.7818049 4.9212805 91.7818049 0.697280502 92.6038049 0.697280502 93.8118049 4.2972805 93.8118049 4.2972805 95.0118049 0.697280502 95.8338049 0.697280502 95.8338049 4.9212805 95.2798049 4.9212805 95.2798049 1.3472805 95.2798049 1.3472805 94.0888049 4.9212805 93.5378049 4.9212805 92.3438049 1.3612805 92.3438049 1.3612805"></polygon>
            </g>
        </g>
    </g>
</svg>